:FULLY-SPECIFIED
:FORCE-ALL-JOINTS-BE-3DOF
:DEGREES
2039
root -3.08532 14.8884 21.9659 897.57 -4.18764 174.958
lfemur -14.0374 10.1346 -20.1673
ltibia 56.7778 0 0
lfoot -23.2608 24.8086 0
ltoes -36.559 0 0
rfemur -37.4275 -7.95863 7.17562
rtibia 48.5176 0 0
rfoot 18.124 -6.67503 0
rtoes 5.52051 0 0
lowerback 14.0642 0.932173 -5.97262
upperback 0.370453 0.263863 1.73545
thorax -7.60188 0.339769 5.16317
lowerneck -3.47964 -3.81614 -6.44606
upperneck 8.84404 -5.17671 0.610264
head 3.94562 -2.80155 0.816981
lclavicle -6.28832e-14 4.05325e-15 0
lhumerus -41.5345 -7.82867 97.614
lradius 81.7324 0 0
lwrist 33.542 0 0
lhand -25.5377 33.8176 0
lfingers 7.12502 0 0
lthumb 0.992241 -656.205 0
rclavicle -6.28832e-14 4.05325e-15 0
rhumerus 18.7761 -10.2998 -94.2801
rradius 37.3168 0 0
rwrist 43.6426 0 0
rhand -1.4181 -395.774 0
rfingers 7.12502 0 0
rthumb 24.2287 295.765 0
2040
root -3.10649 14.884 21.8086 897.181 -5.299 174.787
lfemur -12.9895 9.60892 -20.3026
ltibia 56.4955 0 0
lfoot -23.6954 24.7564 0
ltoes -37.0246 0 0
rfemur -37.9739 -8.1113 6.98735
rtibia 47.6771 0 0
rfoot 18.9037 -5.93527 0
rtoes 5.76052 0 0
lowerback 14.1638 1.02285 -6.16318
upperback 0.417016 0.338853 1.6562
thorax -7.61683 0.378412 5.17376
lowerneck -3.45041 -4.21209 -6.73668
upperneck 9.07339 -5.71463 0.8525
head 4.01547 -3.0748 0.915292
lclavicle -6.45238e-14 2.19147e-15 0
lhumerus -43.4323 -8.39432 98.6482
lradius 83.7066 0 0
lwrist 35.8697 0 0
lhand -25.5348 33.5929 0
lfingers 7.12502 0 0
lthumb 0.99511 -656.43 0
rclavicle -6.45238e-14 2.19147e-15 0
rhumerus 21.7624 -11.1782 -94.3413
rradius 35.0531 0 0
rwrist 47.3982 0 0
rhand -1.57032 -395.624 0
rfingers 7.12502 0 0
rthumb 24.0829 295.893 0
2041
root -3.12765 14.8797 21.6513 896.791 -6.41037 174.617
lfemur -11.9417 9.08323 -20.438
ltibia 56.2131 0 0
lfoot -24.1301 24.7043 0
ltoes -37.4902 0 0
rfemur -38.5202 -8.26396 6.79907
rtibia 46.8365 0 0
rfoot 19.6833 -5.19552 0
rtoes 6.00054 0 0
lowerback 14.2634 1.11352 -6.35375
upperback 0.463578 0.413842 1.57695
thorax -7.63177 0.417056 5.18434
lowerneck -3.42118 -4.60803 -7.0273
upperneck 9.30275 -6.25256 1.09474
head 4.08532 -3.34806 1.0136
lclavicle -6.61644e-14 3.29678e-16 0
lhumerus -45.3302 -8.95996 99.6825
lradius 85.6808 0 0
lwrist 38.1975 0 0
lhand -25.5318 33.3681 0
lfingers 7.12502 0 0
lthumb 0.997979 -656.655 0
rclavicle -6.61644e-14 3.29678e-16 0
rhumerus 24.7487 -12.0566 -94.4024
rradius 32.7895 0 0
rwrist 51.1538 0 0
rhand -1.72254 -395.475 0
rfingers 7.12502 0 0
rthumb 23.9371 296.022 0
2042
root -3.14881 14.8753 21.494 896.402 -7.52173 174.446
lfemur -10.8938 8.55753 -20.5733
ltibia 55.9308 0 0
lfoot -24.5648 24.6521 0
ltoes -37.9558 0 0
rfemur -39.0665 -8.41663 6.6108
rtibia 45.9959 0 0
rfoot 20.463 -4.45576 0
rtoes 6.24056 0 0
lowerback 14.363 1.20419 -6.54431
upperback 0.510141 0.488832 1.4977
thorax -7.64672 0.455699 5.19492
lowerneck -3.39195 -5.00398 -7.31793
upperneck 9.5321 -6.79048 1.33697
head 4.15517 -3.62131 1.11191
lclavicle -6.7805e-14 -1.53211e-15 0
lhumerus -47.2281 -9.5256 100.717
lradius 87.655 0 0
lwrist 40.5253 0 0
lhand -25.5288 33.1434 0
lfingers 7.12502 0 0
lthumb 1.00085 -656.879 0
rclavicle -6.7805e-14 -1.53211e-15 0
rhumerus 27.7349 -12.935 -94.4636
rradius 30.5258 0 0
rwrist 54.9094 0 0
rhand -1.87476 -395.326 0
rfingers 7.12502 0 0
rthumb 23.7913 296.15 0
2043
root -3.16997 14.871 21.3367 896.013 -8.63309 174.275
lfemur -9.84599 8.03184 -20.7087
ltibia 55.6485 0 0
lfoot -24.9994 24.5999 0
ltoes -38.4214 0 0
rfemur -39.6129 -8.5693 6.42252
rtibia 45.1553 0 0
rfoot 21.2426 -3.716 0
rtoes 6.48057 0 0
lowerback 14.4626 1.29487 -6.73488
upperback 0.556703 0.563822 1.41845
thorax -7.66167 0.494343 5.2055
lowerneck -3.36272 -5.39993 -7.60855
upperneck 9.76146 -7.3284 1.57921
head 4.22502 -3.89456 1.21022
lclavicle -6.94456e-14 -3.3939e-15 0
lhumerus -49.126 -10.0912 101.751
lradius 89.6292 0 0
lwrist 42.8531 0 0
lhand -25.5259 32.9187 0
lfingers 7.12502 0 0
lthumb 1.00372 -657.104 0
rclavicle -6.94456e-14 -3.3939e-15 0
rhumerus 30.7212 -13.8135 -94.5248
rradius 28.2621 0 0
rwrist 58.665 0 0
rhand -2.02698 -395.176 0
rfingers 7.12502 0 0
rthumb 23.6455 296.279 0
2044
root -3.19113 14.8666 21.1794 895.624 -9.74446 174.105
lfemur -8.79814 7.50614 -20.844
ltibia 55.3661 0 0
lfoot -25.4341 24.5477 0
ltoes -38.887 0 0
rfemur -40.1592 -8.72197 6.23425
rtibia 44.3148 0 0
rfoot 22.0222 -2.97624 0
rtoes 6.72059 0 0
lowerback 14.5622 1.38554 -6.92544
upperback 0.603266 0.638812 1.3392
thorax -7.67662 0.532986 5.21609
lowerneck -3.33349 -5.79588 -7.89917
upperneck 9.99081 -7.86633 1.82145
head 4.29487 -4.16782 1.30853
lclavicle -7.10861e-14 -5.25569e-15 0
lhumerus -51.0238 -10.6569 102.785
lradius 91.6035 0 0
lwrist 45.1808 0 0
lhand -25.5229 32.694 0
lfingers 7.12502 0 0
lthumb 1.00659 -657.329 0
rclavicle -7.10861e-14 -5.25569e-15 0
rhumerus 33.7075 -14.6919 -94.5859
rradius 25.9984 0 0
rwrist 62.4206 0 0
rhand -2.1792 -395.027 0
rfingers 7.12502 0 0
rthumb 23.4997 296.407 0
2045
root -3.2123 14.8623 21.0221 895.235 -10.8558 173.934
lfemur -7.75029 6.98045 -20.9794
ltibia 55.0838 0 0
lfoot -25.8688 24.4955 0
ltoes -39.3526 0 0
rfemur -40.7055 -8.87463 6.04597
rtibia 43.4742 0 0
rfoot 22.8019 -2.23649 0
rtoes 6.96061 0 0
lowerback 14.6618 1.47622 -7.116
upperback 0.649828 0.713801 1.25996
thorax -7.69157 0.57163 5.22667
lowerneck -3.30426 -6.19182 -8.18979
upperneck 10.2202 -8.40425 2.06368
head 4.36472 -4.44107 1.40685
lclavicle -7.27267e-14 -7.11747e-15 0
lhumerus -52.9217 -11.2225 103.819
lradius 93.5777 0 0
lwrist 47.5086 0 0
lhand -25.5199 32.4692 0
lfingers 7.12502 0 0
lthumb 1.00946 -657.554 0
rclavicle -7.27267e-14 -7.11747e-15 0
rhumerus 36.6938 -15.5703 -94.6471
rradius 23.7347 0 0
rwrist 66.1761 0 0
rhand -2.33142 -394.877 0
rfingers 7.12502 0 0
rthumb 23.3539 296.536 0
2046
root -3.23346 14.8579 20.8648 894.846 -11.9672 173.763
lfemur -6.70244 6.45475 -21.1147
ltibia 54.8015 0 0
lfoot -26.3034 24.4433 0
ltoes -39.8182 0 0
rfemur -41.2519 -9.0273 5.8577
rtibia 42.6336 0 0
rfoot 23.5815 -1.49673 0
rtoes 7.20062 0 0
lowerback 14.7615 1.56689 -7.30657
upperback 0.696391 0.788791 1.18071
thorax -7.70652 0.610273 5.23725
lowerneck -3.27503 -6.58777 -8.48042
upperneck 10.4495 -8.94218 2.30592
head 4.43456 -4.71432 1.50516
lclavicle -7.43673e-14 -8.97926e-15 0
lhumerus -54.8196 -11.7882 104.854
lradius 95.5519 0 0
lwrist 49.8364 0 0
lhand -25.517 32.2445 0
lfingers 7.12502 0 0
lthumb 1.01232 -657.778 0
rclavicle -7.43673e-14 -8.97926e-15 0
rhumerus 39.68 -16.4487 -94.7083
rradius 21.471 0 0
rwrist 69.9317 0 0
rhand -2.48365 -394.728 0
rfingers 7.12502 0 0
rthumb 23.2081 296.664 0
2047
root -3.25462 14.8535 20.7075 894.457 -13.0785 173.593
lfemur -5.65459 5.92905 -21.2501
ltibia 54.5191 0 0
lfoot -26.7381 24.3911 0
ltoes -40.2838 0 0
rfemur -41.7982 -9.17997 5.66942
rtibia 41.7931 0 0
rfoot 24.3611 -0.75697 0
rtoes 7.44064 0 0
lowerback 14.8611 1.65756 -7.49713
upperback 0.742953 0.863781 1.10146
thorax -7.72147 0.648917 5.24784
lowerneck -3.24581 -6.98372 -8.77104
upperneck 10.6789 -9.4801 2.54815
head 4.50441 -4.98758 1.60347
lclavicle -7.60079e-14 -1.0841e-14 0
lhumerus -56.7174 -12.3538 105.888
lradius 97.5261 0 0
lwrist 52.1641 0 0
lhand -25.514 32.0198 0
lfingers 7.12502 0 0
lthumb 1.01519 -658.003 0
rclavicle -7.60079e-14 -1.0841e-14 0
rhumerus 42.6663 -17.3271 -94.7694
rradius 19.2073 0 0
rwrist 73.6873 0 0
rhand -2.63587 -394.579 0
rfingers 7.12502 0 0
rthumb 23.0623 296.793 0
2048
root -3.27578 14.8492 20.5502 894.068 -14.1899 173.422
lfemur -4.60674 5.40336 -21.3854
ltibia 54.2368 0 0
lfoot -27.1728 24.339 0
ltoes -40.7494 0 0
rfemur -42.3445 -9.33264 5.48115
rtibia 40.9525 0 0
rfoot 25.1408 -0.0172127 0
rtoes 7.68066 0 0
lowerback 14.9607 1.74824 -7.6877
upperback 0.789516 0.938771 1.02221
thorax -7.73642 0.68756 5.25842
lowerneck -3.21658 -7.37967 -9.06166
upperneck 10.9082 -10.018 2.79039
head 4.57426 -5.26083 1.70178
lclavicle -7.76485e-14 -1.27028e-14 0
lhumerus -58.6153 -12.9195 106.922
lradius 99.5003 0 0
lwrist 54.4919 0 0
lhand -25.511 31.7951 0
lfingers 7.12502 0 0
lthumb 1.01806 -658.228 0
rclavicle -7.76485e-14 -1.27028e-14 0
rhumerus 45.6526 -18.2055 -94.8306
rradius 16.9436 0 0
rwrist 77.4429 0 0
rhand -2.78809 -394.429 0
rfingers 7.12502 0 0
rthumb 22.9165 296.921 0
2049
root -3.29695 14.8448 20.3929 893.679 -15.3013 173.251
lfemur -3.55888 4.87766 -21.5208
ltibia 53.9545 0 0
lfoot -27.6075 24.2868 0
ltoes -41.215 0 0
rfemur -42.8908 -9.4853 5.29287
rtibia 40.1119 0 0
rfoot 25.9204 0.722545 0
rtoes 7.92068 0 0
lowerback 15.0603 1.83891 -7.87826
upperback 0.836078 1.01376 0.942956
thorax -7.75137 0.726204 5.269
lowerneck -3.18735 -7.77561 -9.35228
upperneck 11.1376 -10.556 3.03263
head 4.64411 -5.53408 1.80009
lclavicle -7.9289e-14 -1.45646e-14 0
lhumerus -60.5132 -13.4851 107.956
lradius 101.475 0 0
lwrist 56.8197 0 0
lhand -25.508 31.5703 0
lfingers 7.12502 0 0
lthumb 1.02093 -658.453 0
rclavicle -7.9289e-14 -1.45646e-14 0
rhumerus 48.6389 -19.084 -94.8918
rradius 14.6799 0 0
rwrist 81.1985 0 0
rhand -2.94031 -394.28 0
rfingers 7.12502 0 0
rthumb 22.7707 297.05 0
2050
root -3.31811 14.8405 20.2356 893.29 -16.4126 173.081
lfemur -2.51103 4.35197 -21.6561
ltibia 53.6721 0 0
lfoot -28.0421 24.2346 0
ltoes -41.6806 0 0
rfemur -43.4372 -9.63797 5.1046
rtibia 39.2714 0 0
rfoot 26.7001 1.4623 0
rtoes 8.16069 0 0
lowerback 15.1599 1.92959 -8.06883
upperback 0.882641 1.08875 0.863706
thorax -7.76632 0.764847 5.27959
lowerneck -3.15812 -8.17156 -9.64291
upperneck 11.3669 -11.0939 3.27486
head 4.71396 -5.80734 1.8984
lclavicle -8.09296e-14 -1.64264e-14 0
lhumerus -62.411 -14.0508 108.991
lradius 103.449 0 0
lwrist 59.1474 0 0
lhand -25.5051 31.3456 0
lfingers 7.12502 0 0
lthumb 1.0238 -658.677 0
rclavicle -8.09296e-14 -1.64264e-14 0
rhumerus 51.6251 -19.9624 -94.9529
rradius 12.4162 0 0
rwrist 84.9541 0 0
rhand -3.09253 -394.13 0
rfingers 7.12502 0 0
rthumb 22.6249 297.178 0
